# File created by Blade
# Date/Time:  Wed Sep 24 19:42:34 2014
# Frame Rate: 120.000 fps
#------------------------------------------------------
:FULLY-SPECIFIED
:DEGREES
3067
root -4.742697 33.092140 -3.754364 8.082640 -0.851285 -2.304091
Spine -12.868500 12.218933 -7.558856
Head 17.662602 -14.620128 10.448962
LeftShoulder -16.174392 23.339443 7.504410
LeftArm 23.464912 26.579245 -66.354745
LeftForeArm 3.939025 -0.000000 27.414538
LeftHand -25.652774 -0.000000 -4.221154
LeftHandThumb1 -26.253704 0.000000 33.147579
RightShoulder 297.109356 63.453434 236.394355
RightArm -11.562457 24.381594 32.085161
RightForeArm 14.819248 -0.000000 114.718093
RightHand -2.316270 -0.000000 -2.479757
RightHandThumb1 -24.326973 -0.000000 -32.862282
LeftUpLeg -2.624335 6.758211 5.871740
LeftLeg -1.668906 -0.000000 0.000000
LeftFoot -8.009720 5.824164 -19.646785
LeftToeBase 10.544949 -0.000000 -0.000000
RightUpLeg -5.644956 -6.461199 0.494439
RightLeg 2.098044 -0.000000 -0.000000
RightFoot -5.397621 -2.968700 -15.643265
RightToeBase 0.324988 -0.000000 -0.000000
3068
root -4.747210 33.091936 -3.756478 8.129472 -0.869870 -2.319874
Spine -12.877302 12.133189 -7.580524
Head 17.749353 -14.613354 10.367516
LeftShoulder -16.210825 23.343753 7.467859
LeftArm 23.435951 26.532493 -66.350914
LeftForeArm 3.895000 -0.000000 27.401671
LeftHand -25.690964 -0.000000 -4.205003
LeftHandThumb1 -26.253704 0.000000 33.147579
RightShoulder 295.369346 63.629662 234.319548
RightArm -12.372902 24.432998 31.843278
RightForeArm 15.859875 -0.000000 117.358776
RightHand -1.655717 0.000000 -1.852513
RightHandThumb1 -24.326973 -0.000000 -32.862282
LeftUpLeg -2.657895 6.770401 5.888088
LeftLeg -1.694751 -0.000000 0.000000
LeftFoot -8.000920 5.842970 -19.635897
LeftToeBase 10.518642 -0.000000 -0.000000
RightUpLeg -5.686563 -6.463527 0.520954
RightLeg 2.072953 -0.000000 -0.000000
RightFoot -5.391954 -2.930617 -15.639916
RightToeBase 0.317402 -0.000000 -0.000000
3069
root -4.750095 33.092129 -3.757898 8.164807 -0.898647 -2.337647
Spine -12.885032 12.080513 -7.594315
Head 17.861883 -14.594574 10.246179
LeftShoulder -16.235131 23.419437 7.404819
LeftArm 23.500776 26.468945 -66.305972
LeftForeArm 3.900536 0.000000 27.344783
LeftHand -25.655461 -0.000000 -4.254965
LeftHandThumb1 -26.253704 0.000000 33.147579
RightShoulder 294.126091 63.714006 232.820168
RightArm -12.991010 24.700686 31.579647
RightForeArm 16.669529 -0.000000 119.953502
RightHand -1.240536 0.000000 -1.462624
RightHandThumb1 -24.326973 -0.000000 -32.862282
LeftUpLeg -2.675704 6.790918 5.904741
LeftLeg -1.724122 -0.000000 0.000000
LeftFoot -7.995043 5.858686 -19.637894
LeftToeBase 10.537509 -0.000000 -0.000000
RightUpLeg -5.723870 -6.471417 0.545305
RightLeg 2.066127 -0.000000 -0.000000
RightFoot -5.386990 -2.879563 -15.607004
RightToeBase 0.321277 -0.000000 -0.000000
3070
root -4.753704 33.091979 -3.758828 8.201309 -0.926936 -2.354753
Spine -12.907797 12.082229 -7.603176
Head 17.996141 -14.587766 10.052684
LeftShoulder -16.188079 23.442735 7.348702
LeftArm 23.524027 26.443809 -66.237841
LeftForeArm 3.864927 -0.000000 27.279416
LeftHand -25.642335 -0.000000 -4.316870
LeftHandThumb1 -26.253704 0.000000 33.147579
RightShoulder 292.863351 63.759592 231.233537
RightArm -13.679559 24.920345 31.312769
RightForeArm 17.308166 -0.000000 122.444088
RightHand -0.780200 -0.000000 -0.853039
RightHandThumb1 -24.326973 -0.000000 -32.862282
LeftUpLeg -2.689326 6.801558 5.922422
LeftLeg -1.761793 -0.000000 0.000000
LeftFoot -7.989788 5.874675 -19.670085
LeftToeBase 10.534849 -0.000000 -0.000000
RightUpLeg -5.753909 -6.470079 0.571664
RightLeg 2.044402 -0.000000 -0.000000
RightFoot -5.381651 -2.853672 -15.614212
RightToeBase 0.320583 -0.000000 -0.000000
3071
root -4.757297 33.091354 -3.758828 8.231265 -0.966383 -2.366034
Spine -12.924555 12.014325 -7.633451
Head 18.086437 -14.485192 9.994072
LeftShoulder -16.237816 23.461292 7.298382
LeftArm 23.560017 26.436679 -66.185566
LeftForeArm 3.833142 -0.000000 27.177135
LeftHand -25.607709 -0.000000 -4.384451
LeftHandThumb1 -26.253704 0.000000 33.147579
RightShoulder 291.751591 63.826165 229.916756
RightArm -14.256174 25.229589 31.007970
RightForeArm 17.857532 -0.000000 124.791571
RightHand -0.391687 -0.000000 -0.067426
RightHandThumb1 -24.326973 -0.000000 -32.862282
LeftUpLeg -2.696183 6.832364 5.933448
LeftLeg -1.790345 -0.000000 0.000000
LeftFoot -7.989615 5.883511 -19.678921
LeftToeBase 10.526202 -0.000000 -0.000000
RightUpLeg -5.777654 -6.474168 0.590452
RightLeg 2.023252 -0.000000 -0.000000
RightFoot -5.388430 -2.814689 -15.633018
RightToeBase 0.360107 -0.000000 -0.000000
3072
root -4.761706 33.091117 -3.758290 8.262516 -1.008382 -2.389242
Spine -12.952419 11.981968 -7.654092
Head 18.156273 -14.402896 9.942713
LeftShoulder -16.222937 23.440571 7.282683
LeftArm 23.543662 26.470480 -66.156625
LeftForeArm 3.823083 -0.000000 27.074036
LeftHand -25.677561 -0.000000 -4.376626
LeftHandThumb1 -26.253704 0.000000 33.147579
RightShoulder 290.930571 63.840170 228.966463
RightArm -14.640855 25.493723 30.781150
RightForeArm 18.095022 -0.000000 126.953676
RightHand 0.072885 -0.000000 0.314358
RightHandThumb1 -24.326973 -0.000000 -32.862282
LeftUpLeg -2.698404 6.850479 5.959576
LeftLeg -1.829605 -0.000000 0.000000
LeftFoot -7.987084 5.899279 -19.698237
LeftToeBase 10.536268 -0.000000 -0.000000
RightUpLeg -5.804625 -6.480224 0.623558
RightLeg 2.006530 -0.000000 -0.000000
RightFoot -5.377896 -2.760796 -15.618101
RightToeBase 0.291986 -0.000000 -0.000000
3073
root -4.765373 33.090500 -3.757368 8.297956 -1.049050 -2.406123
Spine -12.993119 11.957942 -7.669142
Head 18.225525 -14.305286 9.851334
LeftShoulder -16.179428 23.417562 7.255834
LeftArm 23.507559 26.519477 -66.102067
LeftForeArm 3.805261 -0.000000 26.977675
LeftHand -25.637450 -0.000000 -4.557424
LeftHandThumb1 -26.253704 0.000000 33.147579
RightShoulder 290.377945 63.825075 228.293544
RightArm -14.940900 25.785750 30.588684
RightForeArm 18.308729 -0.000000 128.947134
RightHand 0.425049 -0.000000 0.681397
RightHandThumb1 -24.326973 -0.000000 -32.862282
LeftUpLeg -2.706918 6.863042 5.976533
LeftLeg -1.860980 -0.000000 0.000000
LeftFoot -8.006476 5.931649 -19.716965
LeftToeBase 10.583708 -0.000000 -0.000000
RightUpLeg -5.823990 -6.457362 0.644316
RightLeg 1.969453 -0.000000 -0.000000
RightFoot -5.370217 -2.729967 -15.635558
RightToeBase 0.298089 -0.000000 -0.000000
3074
root -4.767299 33.090512 -3.755016 8.309981 -1.119758 -2.416033
Spine -13.028400 11.949138 -7.718826
Head 18.269520 -14.242627 9.776645
LeftShoulder -16.122592 23.429361 7.262484
LeftArm 23.510735 26.585900 -66.057311
LeftForeArm 3.781215 0.000000 26.824572
LeftHand -25.561023 -0.000000 -4.561769
LeftHandThumb1 -26.253704 0.000000 33.147579
RightShoulder 289.823185 63.821191 227.751903
RightArm -15.131185 25.986527 30.455425
RightForeArm 18.508982 -0.000000 130.697633
RightHand 0.702839 -0.000000 1.082070
RightHandThumb1 -24.326973 -0.000000 -32.862282
LeftUpLeg -2.685120 6.901319 5.982961
LeftLeg -1.888641 -0.000000 0.000000
LeftFoot -8.009294 5.960621 -19.730706
LeftToeBase 10.574188 -0.000000 -0.000000
RightUpLeg -5.833901 -6.426597 0.657345
RightLeg 1.957575 -0.000000 -0.000000
RightFoot -5.356440 -2.718442 -15.636555
RightToeBase 0.275399 -0.000000 -0.000000
3075
root -4.771351 33.090609 -3.751486 8.324326 -1.187047 -2.433245
Spine -13.072093 11.895102 -7.783289
Head 18.275177 -14.160573 9.811711
LeftShoulder -16.146488 23.422443 7.277817
LeftArm 23.510589 26.673733 -66.027244
LeftForeArm 3.783001 0.000000 26.680100
LeftHand -25.576024 -0.000000 -4.576875
LeftHandThumb1 -26.253704 0.000000 33.147579
RightShoulder 289.249549 63.858222 227.187695
RightArm -15.380990 26.102818 30.313972
RightForeArm 18.830378 -0.000000 132.193066
RightHand 1.029015 -0.000000 1.397595
RightHandThumb1 -24.326973 -0.000000 -32.862282
LeftUpLeg -2.662043 6.899713 6.005274
LeftLeg -1.920919 -0.000000 0.000000
LeftFoot -8.018005 6.011642 -19.745646
LeftToeBase 10.544788 -0.000000 -0.000000
RightUpLeg -5.838258 -6.408237 0.677318
RightLeg 1.936833 -0.000000 -0.000000
RightFoot -5.360253 -2.674902 -15.646553
RightToeBase 0.310856 -0.000000 -0.000000
